# xmcd
#
# Track frame offsets: 
#        150
#        4347
#        19783
#        24425
#        43987
#        55866
#        78189
#        96959
#        120717
#        136046
#        170257
#        184484
#        200553
#
# Disc length: 2792 seconds
#
# Revision: 0
# Processed by: cddbd v1.5.2PL0 Copyright (c) Steve Scherf et al.
# Submitted via: ExactAudioCopy v0.99pb4
#
DISCID=a90ae60d
DTITLE=Bernard FAlaise - Clic
DYEAR=2007
DGENRE=Avantgarde
TTITLE0=Allo
TTITLE1=Tricheur
TTITLE2=Watt
TTITLE3=Thon
TTITLE4=Lime
TTITLE5=Tour
TTITLE6=Mule
TTITLE7=Yeti
TTITLE8=Fete
TTITLE9=Neuf
TTITLE10=Luna
TTITLE11=Moka
TTITLE12=Clic
EXTD=
EXTT0=
EXTT1=
EXTT2=
EXTT3=
EXTT4=
EXTT5=
EXTT6=
EXTT7=
EXTT8=
EXTT9=
EXTT10=
EXTT11=
EXTT12=
PLAYORDER=
